<?xml version="1.0" encoding="UTF-8"?>
<svg id="Estructura_logotip" data-name="Estructura logotip" xmlns="http://www.w3.org/2000/svg" viewBox="0 0 1409.37 282.93">
  <defs>
    <style>
      .cls-1 {
        fill: #fff;
      }
    </style>
  </defs>
  <path class="cls-1" d="M349.1,96.75c-4.97-6.11-11.11-11.04-18.26-14.67-7.1-3.6-15.43-5.42-24.77-5.42s-18.28,1.92-25.36,5.72c-7.17,3.85-13.26,8.94-18.12,15.15-4.9,6.25-8.6,13.5-11,21.54-2.43,8.13-3.66,16.54-3.66,24.99s1.28,17.16,3.81,25.28c2.51,8.06,6.27,15.32,11.17,21.57,4.85,6.2,10.99,11.23,18.24,14.96,7.2,3.7,15.58,5.58,24.92,5.58s18.33-1.98,25.51-5.88c7.25-3.93,13.34-9.13,18.1-15.44,4.8-6.37,8.46-13.69,10.87-21.75,2.43-8.14,3.66-16.54,3.66-24.99s-1.28-17.16-3.81-25.28c-2.51-8.04-6.31-15.22-11.3-21.36"/>
  <path class="cls-1" d="M219.07,228.03c-10.35-11.36-18.51-24.54-24.25-39.17-5.74-14.63-8.65-29.93-8.65-45.47s3.03-31.19,9-45.84c5.96-14.63,14.41-27.71,25.12-38.86,10.7-11.15,23.54-20.17,38.18-26.81,2.9-1.32,5.88-2.47,8.9-3.53H28.35v226.23h226.18c-13.69-6.84-25.62-15.75-35.46-26.55M147.73,208.76l-9.98-28.84h-35.66l-9.8,28.84h-37.14l49.25-135.01h31.19l49.25,135.01h-37.12Z"/>
  <polygon class="cls-1" points="108.92 153.21 130.77 153.21 119.97 120.57 108.92 153.21"/>
  <path class="cls-1" d="M345.86,28.35c3.36,1.2,6.66,2.53,9.85,4.05,14.64,6.98,27.32,16.36,37.7,27.85,10.36,11.48,18.46,24.72,24.08,39.34,5.63,14.64,8.48,29.71,8.48,44.79s-3.03,31.19-9,45.84c-5.96,14.63-14.35,27.7-24.94,38.85-9.86,10.38-21.63,18.93-34.99,25.51h236.88V28.35h-248.06ZM565.68,180.12c-2.16,5.25-5.39,10.02-9.61,14.17-4.12,4.05-8.92,7.5-14.27,10.24-5.27,2.7-10.94,4.79-16.84,6.2-5.9,1.41-11.76,2.12-17.43,2.12-9.98,0-19.3-2.08-27.7-6.18-8.31-4.06-15.57-9.52-21.57-16.23-5.97-6.68-10.67-14.37-13.95-22.85-3.28-8.49-4.94-17.24-4.94-26,0-8.27,1.57-16.6,4.66-24.78,3.1-8.2,7.69-15.64,13.63-22.1,5.95-6.46,13.27-11.77,21.77-15.76,8.57-4.02,18.39-6.06,29.2-6.06,12.88,0,24.26,2.84,33.82,8.43,9.6,5.62,16.87,13.07,21.6,22.14l1.64,3.14-30.05,20.99-1.95-4.55c-1.26-2.93-2.85-5.37-4.74-7.26-1.96-1.96-4.12-3.56-6.44-4.77-2.33-1.22-4.74-2.08-7.15-2.55-2.55-.5-5.06-.75-7.47-.75-5.03,0-9.44,1.01-13.1,2.99-3.76,2.04-6.9,4.69-9.35,7.89-2.49,3.24-4.36,6.99-5.56,11.13-1.23,4.25-1.86,8.62-1.86,12.99,0,4.67.73,9.24,2.18,13.56,1.42,4.28,3.5,8.1,6.17,11.37,2.62,3.21,5.82,5.79,9.51,7.66,5.49,2.79,12.29,3.63,19.79,1.87,2.51-.59,4.95-1.51,7.26-2.75,2.25-1.2,4.35-2.8,6.25-4.75,1.82-1.87,3.33-4.24,4.47-7.05l1.76-4.32,31.58,18.62-1.33,3.23Z"/>
  <path class="cls-1" d="M664.33,77.83h8.89l19.66,51.71h-10.34l-4.81-12.89h-18.06l-4.73,12.89h-10.34l19.74-51.71ZM675.91,109.58l-7.14-20.32-7.43,20.32h14.57Z"/>
  <path class="cls-1" d="M712.32,130.27c-2.62,0-5.05-.51-7.28-1.53-2.23-1.02-4.15-2.43-5.75-4.23-1.6-1.8-2.85-3.89-3.75-6.3-.9-2.4-1.35-4.99-1.35-7.76s.42-5.34,1.27-7.72c.85-2.38,2.03-4.47,3.53-6.26,1.5-1.8,3.3-3.2,5.39-4.23,2.09-1.02,4.37-1.53,6.85-1.53,2.81,0,5.35.68,7.61,2.04,2.26,1.36,4.01,3.13,5.28,5.32v-21.7h9.76v41.95c0,1.02.17,1.75.51,2.18.34.44.92.68,1.75.73v8.3c-1.7.34-3.08.51-4.15.51-1.75,0-3.18-.44-4.3-1.31-1.12-.87-1.75-2.02-1.89-3.42l-.22-2.4c-1.41,2.43-3.31,4.26-5.72,5.5-2.4,1.24-4.92,1.86-7.54,1.86M714.87,121.96c.92,0,1.87-.16,2.84-.47.97-.32,1.87-.76,2.69-1.35.82-.58,1.57-1.26,2.22-2.04.66-.78,1.15-1.63,1.49-2.55v-9.1c-.39-1.07-.93-2.05-1.64-2.95-.7-.9-1.5-1.68-2.4-2.33-.9-.66-1.85-1.18-2.84-1.57-1-.39-1.98-.58-2.95-.58-1.46,0-2.8.32-4.04.95-1.24.63-2.29,1.49-3.17,2.58-.87,1.09-1.55,2.34-2.04,3.75-.49,1.41-.73,2.87-.73,4.37,0,1.6.27,3.08.8,4.44.53,1.36,1.26,2.55,2.18,3.57.92,1.02,2.03,1.82,3.31,2.4,1.29.58,2.71.87,4.26.87"/>
  <path class="cls-1" d="M802.77,129.54h-9.76v-21.41c0-3.06-.52-5.29-1.57-6.7-1.05-1.41-2.49-2.11-4.33-2.11-1.94,0-3.76.74-5.46,2.22-1.7,1.48-2.91,3.41-3.64,5.79v22.21h-9.76v-21.41c0-3.06-.52-5.29-1.56-6.7-1.05-1.41-2.49-2.11-4.33-2.11s-3.7.73-5.43,2.19c-1.72,1.46-2.95,3.38-3.68,5.75v22.29h-9.76v-38.16h8.81v7.06c1.41-2.48,3.34-4.38,5.79-5.72,2.45-1.34,5.26-2,8.41-2s5.68.78,7.43,2.33c1.75,1.55,2.86,3.47,3.35,5.75,1.55-2.62,3.52-4.62,5.9-6.01,2.38-1.38,5.1-2.08,8.16-2.08,2.33,0,4.25.44,5.75,1.31,1.5.87,2.67,2.02,3.5,3.42.83,1.41,1.4,3.01,1.71,4.81.32,1.8.47,3.62.47,5.46v23.82Z"/>
  <path class="cls-1" d="M811.29,76.37h9.76v9.69h-9.76v-9.69ZM811.29,91.38h9.76v38.16h-9.76v-38.16Z"/>
  <path class="cls-1" d="M865.33,129.54h-9.76v-21.41c0-3.06-.53-5.29-1.6-6.7-1.07-1.41-2.55-2.11-4.44-2.11-.97,0-1.97.2-2.99.58-1.02.39-1.98.94-2.88,1.64-.9.7-1.71,1.54-2.44,2.51-.73.97-1.26,2.04-1.6,3.2v22.29h-9.76v-38.16h8.81v7.06c1.41-2.43,3.45-4.32,6.12-5.68,2.67-1.36,5.68-2.04,9.03-2.04,2.38,0,4.32.44,5.83,1.31,1.5.87,2.67,2.02,3.5,3.42.83,1.41,1.4,3.01,1.71,4.81.32,1.8.47,3.62.47,5.46v23.82Z"/>
  <path class="cls-1" d="M873.85,76.37h9.76v9.69h-9.76v-9.69ZM873.85,91.38h9.76v38.16h-9.76v-38.16Z"/>
  <path class="cls-1" d="M906.84,130.27c-3.2,0-6.34-.51-9.4-1.53-3.06-1.02-5.68-2.48-7.87-4.37l3.64-6.12c2.33,1.65,4.6,2.9,6.81,3.75,2.21.85,4.41,1.27,6.59,1.27,1.94,0,3.47-.36,4.59-1.09,1.12-.73,1.67-1.77,1.67-3.13s-.65-2.35-1.97-2.99c-1.31-.63-3.45-1.36-6.41-2.18-2.48-.68-4.59-1.34-6.34-1.97-1.75-.63-3.16-1.35-4.23-2.15-1.07-.8-1.84-1.72-2.33-2.77-.49-1.04-.73-2.29-.73-3.75,0-1.94.37-3.69,1.13-5.24.75-1.55,1.81-2.88,3.17-3.97,1.36-1.09,2.95-1.93,4.77-2.51,1.82-.58,3.8-.87,5.94-.87,2.86,0,5.55.41,8.05,1.24,2.5.83,4.8,2.16,6.88,4.01l-3.93,5.9c-1.94-1.46-3.82-2.52-5.64-3.2-1.82-.68-3.63-1.02-5.43-1.02-1.65,0-3.03.34-4.15,1.02-1.12.68-1.68,1.77-1.68,3.28,0,.68.13,1.24.4,1.67.27.44.69.83,1.27,1.17.58.34,1.35.67,2.29.98.95.32,2.12.64,3.53.98,2.62.68,4.87,1.36,6.74,2.04,1.87.68,3.4,1.46,4.59,2.33,1.19.87,2.06,1.88,2.62,3.02.56,1.14.84,2.51.84,4.11,0,3.74-1.38,6.69-4.15,8.85-2.77,2.16-6.53,3.24-11.29,3.24"/>
  <path class="cls-1" d="M951.49,127.57c-1.31.58-2.91,1.17-4.81,1.75-1.89.58-3.88.87-5.97.87-1.36,0-2.63-.17-3.82-.51-1.19-.34-2.23-.89-3.13-1.64-.9-.75-1.61-1.72-2.15-2.91-.53-1.19-.8-2.63-.8-4.33v-21.92h-5.03v-7.5h5.03v-12.38h9.76v12.38h8.01v7.5h-8.01v18.64c0,1.36.35,2.32,1.06,2.88.7.56,1.56.84,2.58.84s2.02-.17,2.99-.51c.97-.34,1.75-.63,2.33-.87l1.97,7.72Z"/>
  <path class="cls-1" d="M979.3,99.82c-2.96.05-5.61.62-7.94,1.71-2.33,1.09-4.01,2.73-5.03,4.92v23.09h-9.76v-38.16h8.96v8.16c.68-1.31,1.48-2.49,2.4-3.53.92-1.04,1.92-1.95,2.98-2.73,1.07-.78,2.15-1.37,3.24-1.78,1.09-.41,2.15-.62,3.17-.62h1.2c.27,0,.52.02.77.07v8.89Z"/>
  <path class="cls-1" d="M994.67,130.27c-1.85,0-3.57-.3-5.17-.91-1.6-.61-2.99-1.46-4.15-2.55-1.17-1.09-2.07-2.37-2.73-3.82-.65-1.46-.98-3.06-.98-4.81s.4-3.46,1.2-4.99c.8-1.53,1.92-2.83,3.35-3.9,1.43-1.07,3.14-1.91,5.13-2.51,1.99-.61,4.17-.91,6.55-.91,1.7,0,3.36.14,4.99.44,1.63.29,3.07.7,4.33,1.24v-2.18c0-2.52-.72-4.47-2.15-5.83-1.43-1.36-3.56-2.04-6.37-2.04-2.04,0-4.03.36-5.97,1.09-1.94.73-3.93,1.8-5.97,3.2l-2.99-6.19c4.9-3.25,10.2-4.88,15.88-4.88s9.75,1.35,12.78,4.04c3.03,2.7,4.55,6.59,4.55,11.69v11.87c0,1.02.18,1.75.55,2.19.36.44.96.68,1.78.73v8.3c-1.65.34-3.08.51-4.3.51-1.85,0-3.26-.41-4.26-1.24-1-.83-1.62-1.92-1.86-3.28l-.22-2.11c-1.7,2.23-3.76,3.93-6.19,5.1-2.43,1.16-5.03,1.75-7.79,1.75M997.44,123.13c1.65,0,3.22-.29,4.7-.87,1.48-.58,2.63-1.36,3.46-2.33,1.07-.83,1.6-1.75,1.6-2.77v-4.37c-1.16-.44-2.43-.79-3.79-1.06-1.36-.27-2.67-.4-3.93-.4-2.53,0-4.59.57-6.19,1.71-1.6,1.14-2.4,2.59-2.4,4.33,0,1.65.63,3.02,1.89,4.11,1.26,1.09,2.82,1.64,4.66,1.64"/>
  <path class="cls-1" d="M1023.66,110.46c0-2.67.46-5.2,1.38-7.57.92-2.38,2.26-4.47,4.01-6.26,1.75-1.8,3.86-3.23,6.34-4.3,2.48-1.07,5.27-1.6,8.38-1.6,4.17,0,7.73.9,10.67,2.69,2.94,1.8,5.13,4.15,6.59,7.06l-9.54,2.91c-.83-1.41-1.92-2.49-3.28-3.24-1.36-.75-2.87-1.13-4.52-1.13-1.41,0-2.72.28-3.93.84-1.22.56-2.27,1.34-3.17,2.33-.9,1-1.6,2.2-2.11,3.61-.51,1.41-.77,2.96-.77,4.66s.27,3.25.8,4.66c.53,1.41,1.25,2.62,2.15,3.64.9,1.02,1.95,1.81,3.17,2.37,1.21.56,2.5.84,3.86.84,1.75,0,3.36-.44,4.84-1.31,1.48-.87,2.51-1.94,3.1-3.2l9.54,2.91c-1.31,2.91-3.47,5.29-6.48,7.14-3.01,1.85-6.63,2.77-10.85,2.77-3.11,0-5.9-.53-8.38-1.6-2.48-1.07-4.59-2.51-6.34-4.33-1.75-1.82-3.1-3.93-4.04-6.34-.95-2.4-1.42-4.92-1.42-7.54"/>
  <path class="cls-1" d="M1067.14,76.37h9.76v9.69h-9.76v-9.69ZM1067.14,91.38h9.76v38.16h-9.76v-38.16Z"/>
  <path class="cls-1" d="M1103.33,130.27c-3.11,0-5.9-.53-8.37-1.6-2.48-1.07-4.58-2.51-6.3-4.33-1.72-1.82-3.05-3.92-3.97-6.3-.92-2.38-1.38-4.88-1.38-7.5s.46-5.2,1.38-7.57c.92-2.38,2.25-4.48,3.97-6.3,1.72-1.82,3.82-3.26,6.3-4.33,2.48-1.07,5.27-1.6,8.37-1.6s5.89.53,8.34,1.6c2.45,1.07,4.54,2.51,6.26,4.33,1.72,1.82,3.04,3.92,3.97,6.3.92,2.38,1.38,4.9,1.38,7.57s-.46,5.12-1.38,7.5c-.92,2.38-2.23,4.48-3.93,6.3-1.7,1.82-3.79,3.27-6.26,4.33-2.48,1.07-5.27,1.6-8.38,1.6M1093.35,110.53c0,1.7.25,3.24.76,4.62.51,1.38,1.21,2.58,2.11,3.6.9,1.02,1.95,1.81,3.17,2.37,1.21.56,2.52.84,3.93.84s2.72-.28,3.93-.84c1.21-.56,2.27-1.35,3.17-2.37.9-1.02,1.6-2.23,2.11-3.64.51-1.41.77-2.96.77-4.66s-.26-3.18-.77-4.59c-.51-1.41-1.21-2.62-2.11-3.64-.9-1.02-1.96-1.81-3.17-2.37-1.22-.56-2.53-.84-3.93-.84s-2.72.29-3.93.87c-1.21.58-2.27,1.38-3.17,2.4-.9,1.02-1.6,2.23-2.11,3.64-.51,1.41-.76,2.94-.76,4.59M1105.81,86.93l-6.26-1.89,3.93-8.67h9.1l-6.77,10.56Z"/>
  <path class="cls-1" d="M1170.33,129.9c-3.79,0-7.22-.74-10.31-2.22-3.08-1.48-5.73-3.45-7.94-5.9-2.21-2.45-3.92-5.26-5.14-8.41-1.21-3.16-1.82-6.38-1.82-9.69s.64-6.75,1.93-9.91c1.29-3.15,3.06-5.95,5.32-8.37,2.26-2.43,4.94-4.36,8.05-5.79,3.11-1.43,6.48-2.15,10.12-2.15s7.15.77,10.23,2.29c3.08,1.53,5.72,3.53,7.9,6.01,2.19,2.48,3.88,5.29,5.1,8.45,1.21,3.16,1.82,6.36,1.82,9.61,0,3.45-.63,6.74-1.89,9.87-1.26,3.13-3.01,5.9-5.24,8.3-2.23,2.4-4.91,4.32-8.01,5.75-3.11,1.43-6.48,2.15-10.12,2.15M1155.33,103.68c0,2.23.34,4.39,1.02,6.48.68,2.09,1.66,3.93,2.95,5.53,1.28,1.6,2.86,2.89,4.73,3.86,1.87.97,3.99,1.46,6.37,1.46s4.58-.5,6.45-1.49c1.87-.99,3.45-2.32,4.73-3.97,1.28-1.65,2.26-3.51,2.91-5.57.66-2.06.98-4.16.98-6.3s-.35-4.39-1.06-6.48c-.7-2.09-1.7-3.93-2.98-5.54-1.29-1.6-2.87-2.88-4.74-3.82-1.87-.95-3.97-1.42-6.3-1.42s-4.59.5-6.48,1.49c-1.89.99-3.47,2.31-4.73,3.93-1.26,1.63-2.22,3.47-2.88,5.53-.66,2.06-.98,4.16-.98,6.3"/>
  <path class="cls-1" d="M1224.08,130.27c-2.91,0-5.51-.66-7.79-1.97-2.28-1.31-4.08-3.11-5.39-5.39v6.63h-8.52v-53.17h9.76v21.7c1.36-2.33,3.14-4.14,5.35-5.43,2.21-1.29,4.79-1.93,7.76-1.93,2.48,0,4.73.53,6.77,1.6,2.04,1.07,3.8,2.5,5.28,4.3,1.48,1.8,2.62,3.91,3.42,6.34.8,2.43,1.2,4.98,1.2,7.65s-.45,5.34-1.35,7.72c-.9,2.38-2.15,4.45-3.75,6.23-1.6,1.77-3.5,3.17-5.68,4.19-2.18,1.02-4.54,1.53-7.06,1.53M1221.38,121.96c1.55,0,2.99-.3,4.3-.91,1.31-.61,2.43-1.42,3.35-2.44.92-1.02,1.64-2.21,2.15-3.57.51-1.36.76-2.82.76-4.37s-.24-3.03-.73-4.44c-.49-1.41-1.18-2.65-2.08-3.71-.9-1.07-1.96-1.92-3.17-2.55-1.21-.63-2.55-.95-4.01-.95-2.19,0-4.14.72-5.86,2.15-1.72,1.43-3.05,3.19-3.97,5.28v9.1c.34.97.84,1.85,1.49,2.62.65.78,1.39,1.44,2.22,2,.83.56,1.72,1,2.69,1.31.97.32,1.92.47,2.84.47"/>
  <path class="cls-1" d="M1266.24,130.27c-3.06,0-5.83-.52-8.3-1.57-2.47-1.04-4.59-2.46-6.34-4.26-1.75-1.8-3.09-3.88-4.04-6.26-.95-2.38-1.42-4.88-1.42-7.5s.46-5.28,1.38-7.68c.92-2.4,2.26-4.52,4.01-6.34,1.75-1.82,3.87-3.26,6.37-4.33,2.5-1.07,5.3-1.6,8.41-1.6s5.89.53,8.34,1.6c2.45,1.07,4.54,2.5,6.26,4.3,1.72,1.8,3.03,3.88,3.93,6.26.9,2.38,1.35,4.86,1.35,7.43,0,.63-.01,1.24-.04,1.82-.02.58-.08,1.07-.18,1.46h-29.5c.15,1.51.51,2.84,1.09,4.01.58,1.17,1.33,2.16,2.26,2.98.92.83,1.97,1.46,3.13,1.89,1.17.44,2.38.66,3.64.66,1.94,0,3.77-.47,5.5-1.42,1.72-.95,2.9-2.2,3.53-3.75l8.37,2.33c-1.41,2.91-3.65,5.31-6.74,7.17-3.08,1.87-6.76,2.81-11.03,2.81M1276.15,107.25c-.24-2.86-1.3-5.16-3.17-6.88-1.87-1.72-4.14-2.59-6.81-2.59-1.31,0-2.54.23-3.68.69-1.14.46-2.15,1.11-3.02,1.93-.87.83-1.59,1.82-2.15,2.99-.56,1.16-.89,2.45-.98,3.86h19.81Z"/>
  <path class="cls-1" d="M1314.89,99.82c-2.96.05-5.61.62-7.94,1.71-2.33,1.09-4.01,2.73-5.03,4.92v23.09h-9.76v-38.16h8.96v8.16c.68-1.31,1.48-2.49,2.4-3.53.92-1.04,1.92-1.95,2.98-2.73,1.07-.78,2.15-1.37,3.24-1.78,1.09-.41,2.15-.62,3.17-.62h1.2c.27,0,.52.02.77.07v8.89Z"/>
  <path class="cls-1" d="M1343.22,127.57c-1.31.58-2.91,1.17-4.81,1.75-1.89.58-3.88.87-5.97.87-1.36,0-2.63-.17-3.82-.51-1.19-.34-2.23-.89-3.13-1.64-.9-.75-1.61-1.72-2.15-2.91-.53-1.19-.8-2.63-.8-4.33v-21.92h-5.03v-7.5h5.03v-12.38h9.76v12.38h8.01v7.5h-8.01v18.64c0,1.36.35,2.32,1.06,2.88.7.56,1.56.84,2.58.84s2.02-.17,2.99-.51c.97-.34,1.75-.63,2.33-.87l1.97,7.72Z"/>
  <path class="cls-1" d="M1358.73,130.27c-1.85,0-3.57-.3-5.17-.91-1.6-.61-2.99-1.46-4.15-2.55-1.17-1.09-2.07-2.37-2.73-3.82-.65-1.46-.98-3.06-.98-4.81s.4-3.46,1.2-4.99c.8-1.53,1.92-2.83,3.35-3.9,1.43-1.07,3.14-1.91,5.13-2.51,1.99-.61,4.17-.91,6.55-.91,1.7,0,3.36.14,4.99.44,1.63.29,3.07.7,4.33,1.24v-2.18c0-2.52-.72-4.47-2.15-5.83-1.43-1.36-3.56-2.04-6.37-2.04-2.04,0-4.03.36-5.97,1.09-1.94.73-3.93,1.8-5.97,3.2l-2.99-6.19c4.9-3.25,10.2-4.88,15.88-4.88s9.75,1.35,12.78,4.04c3.03,2.7,4.55,6.59,4.55,11.69v11.87c0,1.02.18,1.75.55,2.19.36.44.96.68,1.78.73v8.3c-1.65.34-3.08.51-4.3.51-1.85,0-3.26-.41-4.26-1.24-1-.83-1.62-1.92-1.86-3.28l-.22-2.11c-1.7,2.23-3.76,3.93-6.19,5.1-2.43,1.16-5.03,1.75-7.79,1.75M1361.5,123.13c1.65,0,3.22-.29,4.7-.87,1.48-.58,2.63-1.36,3.46-2.33,1.07-.83,1.6-1.75,1.6-2.77v-4.37c-1.16-.44-2.43-.79-3.79-1.06-1.36-.27-2.67-.4-3.93-.4-2.53,0-4.59.57-6.19,1.71-1.6,1.14-2.4,2.59-2.4,4.33,0,1.65.63,3.02,1.89,4.11,1.26,1.09,2.82,1.64,4.66,1.64"/>
  <path class="cls-1" d="M664.47,208.42c-2.62,0-5.05-.51-7.28-1.53-2.23-1.02-4.15-2.43-5.75-4.23-1.6-1.8-2.85-3.89-3.75-6.3-.9-2.4-1.35-4.99-1.35-7.76s.42-5.34,1.27-7.72c.85-2.38,2.03-4.47,3.53-6.26,1.5-1.8,3.3-3.2,5.39-4.23,2.09-1.02,4.37-1.53,6.85-1.53,2.81,0,5.35.68,7.61,2.04,2.26,1.36,4.02,3.13,5.28,5.32v-21.7h9.76v41.95c0,1.02.17,1.75.51,2.18.34.44.92.68,1.75.73v8.3c-1.7.34-3.08.51-4.15.51-1.75,0-3.18-.44-4.3-1.31-1.12-.87-1.75-2.02-1.89-3.42l-.22-2.4c-1.41,2.43-3.31,4.26-5.72,5.5-2.4,1.24-4.92,1.86-7.54,1.86M667.02,200.12c.92,0,1.87-.16,2.84-.47.97-.32,1.87-.76,2.69-1.35.82-.58,1.57-1.26,2.22-2.04.66-.78,1.15-1.63,1.49-2.55v-9.1c-.39-1.07-.93-2.05-1.64-2.95-.7-.9-1.5-1.68-2.4-2.33-.9-.66-1.85-1.18-2.84-1.57-1-.39-1.98-.58-2.95-.58-1.46,0-2.8.32-4.04.95-1.24.63-2.29,1.49-3.17,2.58-.87,1.09-1.55,2.34-2.04,3.75-.49,1.41-.73,2.87-.73,4.37,0,1.6.27,3.08.8,4.44.53,1.36,1.26,2.55,2.18,3.57.92,1.02,2.03,1.82,3.31,2.4,1.29.58,2.71.87,4.26.87"/>
  <path class="cls-1" d="M713.34,208.42c-3.06,0-5.83-.52-8.3-1.57-2.47-1.04-4.59-2.46-6.34-4.26-1.75-1.8-3.09-3.88-4.04-6.26-.95-2.38-1.42-4.88-1.42-7.5s.46-5.28,1.38-7.68c.92-2.4,2.26-4.52,4.01-6.34,1.75-1.82,3.87-3.26,6.37-4.33,2.5-1.07,5.3-1.6,8.41-1.6s5.89.53,8.34,1.6c2.45,1.07,4.54,2.5,6.26,4.3,1.72,1.8,3.03,3.88,3.93,6.26.9,2.38,1.35,4.86,1.35,7.43,0,.63-.01,1.24-.04,1.82-.02.58-.08,1.07-.18,1.46h-29.5c.15,1.51.51,2.84,1.09,4.01.58,1.17,1.33,2.16,2.26,2.98.92.83,1.97,1.46,3.13,1.89,1.17.44,2.38.66,3.64.66,1.94,0,3.77-.47,5.5-1.42,1.72-.95,2.9-2.2,3.53-3.75l8.37,2.33c-1.41,2.91-3.65,5.31-6.74,7.17-3.08,1.87-6.76,2.81-11.03,2.81M723.25,185.41c-.24-2.86-1.3-5.16-3.17-6.88-1.87-1.72-4.14-2.59-6.81-2.59-1.31,0-2.54.23-3.68.69-1.14.46-2.15,1.11-3.02,1.93-.87.83-1.59,1.82-2.15,2.99-.56,1.16-.89,2.45-.98,3.86h19.81Z"/>
  <path class="cls-1" d="M754.56,181.48c0-3.15.57-6.27,1.71-9.36,1.14-3.08,2.8-5.84,4.99-8.27,2.18-2.43,4.85-4.39,8.01-5.9,3.15-1.5,6.75-2.26,10.78-2.26,4.76,0,8.87,1.05,12.34,3.13,3.47,2.09,6.06,4.81,7.76,8.16l-7.72,5.32c-.68-1.46-1.51-2.68-2.48-3.68-.97-1-2.02-1.78-3.13-2.37-1.12-.58-2.28-1.01-3.5-1.27-1.21-.27-2.4-.4-3.57-.4-2.53,0-4.72.51-6.59,1.53-1.87,1.02-3.42,2.34-4.66,3.97-1.24,1.63-2.17,3.47-2.81,5.53-.63,2.06-.95,4.11-.95,6.15,0,2.28.36,4.48,1.09,6.59s1.76,3.97,3.1,5.57c1.34,1.6,2.94,2.89,4.81,3.86,1.87.97,3.92,1.46,6.15,1.46,1.17,0,2.38-.14,3.64-.44,1.26-.29,2.46-.75,3.6-1.38,1.14-.63,2.2-1.44,3.17-2.44.97-1,1.75-2.2,2.33-3.61l8.23,4.73c-.83,1.94-2,3.65-3.53,5.13-1.53,1.48-3.25,2.73-5.17,3.75-1.92,1.02-3.97,1.8-6.15,2.33-2.18.53-4.32.8-6.41.8-3.69,0-7.07-.78-10.12-2.33-3.06-1.55-5.69-3.58-7.9-6.08-2.21-2.5-3.93-5.34-5.17-8.52-1.24-3.18-1.86-6.42-1.86-9.72"/>
  <path class="cls-1" d="M817.12,208.42c-1.85,0-3.57-.3-5.17-.91-1.6-.61-2.99-1.46-4.15-2.55-1.17-1.09-2.07-2.37-2.73-3.82-.65-1.46-.98-3.06-.98-4.81s.4-3.46,1.2-4.99c.8-1.53,1.92-2.83,3.35-3.9,1.43-1.07,3.14-1.91,5.13-2.51,1.99-.61,4.17-.91,6.55-.91,1.7,0,3.36.14,4.99.44,1.63.29,3.07.7,4.33,1.24v-2.18c0-2.52-.72-4.47-2.15-5.83-1.43-1.36-3.56-2.04-6.37-2.04-2.04,0-4.03.36-5.97,1.09-1.94.73-3.93,1.8-5.97,3.2l-2.99-6.19c4.9-3.25,10.2-4.88,15.88-4.88s9.75,1.35,12.78,4.04c3.03,2.7,4.55,6.59,4.55,11.69v11.87c0,1.02.18,1.75.55,2.19.36.44.96.68,1.78.73v8.3c-1.65.34-3.08.51-4.3.51-1.85,0-3.26-.41-4.26-1.24-1-.83-1.62-1.92-1.86-3.28l-.22-2.11c-1.7,2.23-3.76,3.93-6.19,5.1-2.43,1.16-5.03,1.75-7.79,1.75M819.89,201.29c1.65,0,3.22-.29,4.7-.87,1.48-.58,2.63-1.36,3.46-2.33,1.07-.83,1.6-1.75,1.6-2.77v-4.37c-1.16-.44-2.43-.79-3.79-1.06-1.36-.27-2.67-.4-3.93-.4-2.53,0-4.59.57-6.19,1.71-1.6,1.14-2.4,2.59-2.4,4.33,0,1.65.63,3.02,1.89,4.11,1.26,1.09,2.82,1.64,4.66,1.64"/>
  <path class="cls-1" d="M871.08,205.73c-1.31.58-2.91,1.17-4.81,1.75-1.89.58-3.88.87-5.97.87-1.36,0-2.63-.17-3.82-.51-1.19-.34-2.23-.89-3.13-1.64-.9-.75-1.61-1.72-2.15-2.91-.53-1.19-.8-2.63-.8-4.33v-21.92h-5.03v-7.5h5.03v-12.38h9.76v12.38h8.01v7.5h-8.01v18.64c0,1.36.35,2.32,1.06,2.88.7.56,1.56.84,2.58.84s2.02-.17,2.99-.51c.97-.34,1.75-.63,2.33-.87l1.97,7.72Z"/>
  <path class="cls-1" d="M886.6,208.42c-1.85,0-3.57-.3-5.17-.91-1.6-.61-2.99-1.46-4.15-2.55-1.17-1.09-2.07-2.37-2.73-3.82-.65-1.46-.98-3.06-.98-4.81s.4-3.46,1.2-4.99c.8-1.53,1.92-2.83,3.35-3.9,1.43-1.07,3.14-1.91,5.13-2.51,1.99-.61,4.17-.91,6.55-.91,1.7,0,3.36.14,4.99.44,1.63.29,3.07.7,4.33,1.24v-2.18c0-2.52-.72-4.47-2.15-5.83-1.43-1.36-3.56-2.04-6.37-2.04-2.04,0-4.03.36-5.97,1.09-1.94.73-3.93,1.8-5.97,3.2l-2.99-6.19c4.9-3.25,10.2-4.88,15.88-4.88s9.75,1.35,12.78,4.04c3.03,2.7,4.55,6.59,4.55,11.69v11.87c0,1.02.18,1.75.55,2.19.36.44.96.68,1.78.73v8.3c-1.65.34-3.08.51-4.3.51-1.85,0-3.26-.41-4.26-1.24-1-.83-1.62-1.92-1.86-3.28l-.22-2.11c-1.7,2.23-3.76,3.93-6.19,5.1-2.43,1.16-5.03,1.75-7.79,1.75M889.36,201.29c1.65,0,3.22-.29,4.7-.87,1.48-.58,2.63-1.36,3.46-2.33,1.07-.83,1.6-1.75,1.6-2.77v-4.37c-1.16-.44-2.43-.79-3.79-1.06-1.36-.27-2.67-.4-3.93-.4-2.53,0-4.59.57-6.19,1.71-1.6,1.14-2.4,2.59-2.4,4.33,0,1.65.63,3.02,1.89,4.11,1.26,1.09,2.82,1.64,4.66,1.64"/>
  <path class="cls-1" d="M917.91,154.53h9.76v40.93c0,1.41.34,2.5,1.02,3.28.68.78,1.65,1.17,2.91,1.17.58,0,1.23-.1,1.93-.29.7-.19,1.37-.44,2-.73l1.31,7.43c-1.31.63-2.84,1.12-4.59,1.46-1.75.34-3.32.51-4.73.51-3.06,0-5.43-.81-7.1-2.44-1.68-1.63-2.51-3.94-2.51-6.95v-44.35Z"/>
  <path class="cls-1" d="M952.72,208.42c-3.93,0-6.92-1.26-8.96-3.79-2.04-2.52-3.06-6.26-3.06-11.22v-23.89h9.76v21.78c0,5.87,2.11,8.81,6.34,8.81,1.89,0,3.73-.57,5.5-1.71,1.77-1.14,3.21-2.88,4.33-5.21v-23.67h9.76v26.95c0,1.02.18,1.75.55,2.19.36.44.96.68,1.78.73v8.3c-.97.19-1.78.32-2.44.36-.65.05-1.25.07-1.78.07-1.75,0-3.17-.4-4.26-1.2-1.09-.8-1.74-1.9-1.93-3.31l-.22-3.06c-1.7,2.62-3.88,4.59-6.55,5.9-2.67,1.31-5.61,1.97-8.81,1.97"/>
  <path class="cls-1" d="M1021.54,207.69h-9.76v-21.41c0-3.06-.53-5.29-1.6-6.7-1.07-1.41-2.55-2.11-4.44-2.11-.97,0-1.97.2-2.99.58-1.02.39-1.98.94-2.88,1.64-.9.7-1.71,1.54-2.44,2.51-.73.97-1.26,2.04-1.6,3.2v22.29h-9.76v-38.16h8.81v7.06c1.41-2.43,3.45-4.32,6.12-5.68,2.67-1.36,5.68-2.04,9.03-2.04,2.38,0,4.32.44,5.83,1.31,1.5.87,2.67,2.02,3.5,3.42.83,1.41,1.4,3.01,1.71,4.81.32,1.8.47,3.62.47,5.46v23.82Z"/>
  <path class="cls-1" d="M1029.99,215.12c.83.24,1.63.42,2.4.55.77.12,1.43.18,1.97.18.63,0,1.21-.12,1.75-.36.53-.24,1.02-.67,1.46-1.27.44-.61.87-1.45,1.31-2.51.44-1.07.9-2.4,1.38-4.01l-15.08-38.16h10.05l10.34,29.71,9.18-29.71h9.18l-16.02,45.74c-.92,2.67-2.5,4.85-4.73,6.55-2.23,1.7-5,2.55-8.3,2.55-.78,0-1.57-.06-2.37-.18-.8-.12-1.64-.33-2.51-.62v-8.45Z"/>
  <path class="cls-1" d="M1078.71,208.42c-1.85,0-3.57-.3-5.17-.91-1.6-.61-2.99-1.46-4.15-2.55-1.17-1.09-2.08-2.37-2.73-3.82-.65-1.46-.98-3.06-.98-4.81s.4-3.46,1.2-4.99c.8-1.53,1.92-2.83,3.35-3.9,1.43-1.07,3.14-1.91,5.13-2.51,1.99-.61,4.17-.91,6.55-.91,1.7,0,3.36.14,4.99.44,1.63.29,3.07.7,4.33,1.24v-2.18c0-2.52-.72-4.47-2.15-5.83-1.43-1.36-3.56-2.04-6.37-2.04-2.04,0-4.03.36-5.97,1.09-1.94.73-3.93,1.8-5.97,3.2l-2.99-6.19c4.9-3.25,10.2-4.88,15.88-4.88s9.75,1.35,12.78,4.04c3.03,2.7,4.55,6.59,4.55,11.69v11.87c0,1.02.18,1.75.55,2.19.36.44.96.68,1.78.73v8.3c-1.65.34-3.08.51-4.3.51-1.85,0-3.26-.41-4.26-1.24-1-.83-1.61-1.92-1.86-3.28l-.22-2.11c-1.7,2.23-3.76,3.93-6.19,5.1-2.43,1.16-5.03,1.75-7.79,1.75M1081.48,201.29c1.65,0,3.22-.29,4.7-.87,1.48-.58,2.63-1.36,3.46-2.33,1.07-.83,1.6-1.75,1.6-2.77v-4.37c-1.16-.44-2.43-.79-3.79-1.06-1.36-.27-2.67-.4-3.93-.4-2.53,0-4.59.57-6.19,1.71-1.6,1.14-2.4,2.59-2.4,4.33,0,1.65.63,3.02,1.89,4.11,1.26,1.09,2.82,1.64,4.66,1.64"/>
</svg>