<?xml version="1.0" encoding="UTF-8"?>
<svg id="Estructura_logotip" data-name="Estructura logotip" xmlns="http://www.w3.org/2000/svg" viewBox="0 0 623.62 529.34">
  <defs>
    <style>
      .cls-1 {
        fill: #fff;
      }
    </style>
  </defs>
  <path class="cls-1" d="M350.45,96.75c-4.97-6.11-11.11-11.04-18.26-14.67-7.1-3.6-15.43-5.42-24.77-5.42s-18.28,1.92-25.36,5.72c-7.17,3.85-13.26,8.94-18.12,15.15-4.9,6.25-8.6,13.5-11,21.54-2.43,8.13-3.66,16.54-3.66,24.99s1.28,17.16,3.82,25.28c2.51,8.06,6.27,15.32,11.17,21.57,4.85,6.2,10.99,11.23,18.24,14.96,7.2,3.7,15.58,5.58,24.92,5.58s18.33-1.98,25.51-5.88c7.25-3.93,13.34-9.13,18.1-15.44,4.8-6.37,8.46-13.69,10.87-21.75,2.43-8.14,3.66-16.54,3.66-24.99s-1.28-17.16-3.81-25.28c-2.51-8.04-6.31-15.22-11.3-21.36"/>
  <path class="cls-1" d="M220.42,228.03c-10.35-11.36-18.51-24.54-24.25-39.17-5.74-14.63-8.65-29.93-8.65-45.47s3.03-31.19,9-45.84c5.96-14.63,14.41-27.71,25.12-38.86,10.7-11.15,23.54-20.17,38.18-26.81,2.9-1.32,5.88-2.47,8.9-3.53H29.7v226.23h226.18c-13.69-6.84-25.62-15.75-35.46-26.55M149.08,208.76l-9.98-28.84h-35.66l-9.8,28.84h-37.14l49.25-135.01h31.19l49.25,135.01h-37.12Z"/>
  <polygon class="cls-1" points="110.27 153.21 132.12 153.21 121.32 120.57 110.27 153.21"/>
  <path class="cls-1" d="M347.22,28.35c3.36,1.2,6.66,2.53,9.85,4.05,14.64,6.98,27.32,16.36,37.7,27.85,10.36,11.48,18.46,24.72,24.08,39.34,5.63,14.64,8.48,29.71,8.48,44.79s-3.03,31.19-9,45.84c-5.96,14.63-14.35,27.7-24.94,38.85-9.86,10.38-21.63,18.93-34.99,25.51h236.88V28.35h-248.06ZM567.04,180.12c-2.16,5.25-5.39,10.02-9.61,14.17-4.12,4.05-8.92,7.5-14.27,10.24-5.27,2.7-10.94,4.79-16.84,6.2-5.9,1.41-11.76,2.12-17.43,2.12-9.98,0-19.3-2.08-27.7-6.18-8.31-4.06-15.57-9.52-21.57-16.23-5.97-6.68-10.67-14.37-13.95-22.85-3.28-8.49-4.94-17.24-4.94-26,0-8.27,1.57-16.6,4.66-24.78,3.1-8.2,7.69-15.64,13.63-22.1,5.95-6.46,13.27-11.77,21.77-15.76,8.57-4.02,18.39-6.06,29.2-6.06,12.88,0,24.26,2.84,33.82,8.43,9.6,5.62,16.87,13.06,21.6,22.14l1.64,3.14-30.05,20.99-1.95-4.55c-1.26-2.93-2.85-5.37-4.74-7.26-1.96-1.96-4.12-3.56-6.44-4.77-2.33-1.22-4.74-2.08-7.15-2.55-2.55-.5-5.06-.75-7.47-.75-5.03,0-9.44,1.01-13.1,2.99-3.76,2.04-6.9,4.69-9.35,7.89-2.49,3.24-4.36,6.99-5.56,11.13-1.23,4.25-1.86,8.62-1.86,12.99,0,4.67.73,9.24,2.18,13.56,1.42,4.28,3.5,8.1,6.17,11.37,2.62,3.21,5.82,5.79,9.51,7.66,5.49,2.79,12.29,3.63,19.79,1.87,2.51-.59,4.95-1.51,7.26-2.75,2.25-1.2,4.35-2.8,6.25-4.75,1.82-1.87,3.33-4.24,4.47-7.05l1.76-4.32,31.58,18.62-1.33,3.23Z"/>
  <path class="cls-1" d="M48.44,300.09h9.04l20.02,52.64h-10.53l-4.89-13.12h-18.38l-4.82,13.12h-10.53l20.09-52.64ZM60.23,332.42l-7.26-20.68-7.56,20.68h14.83Z"/>
  <path class="cls-1" d="M97.29,353.47c-2.67,0-5.14-.52-7.41-1.56-2.27-1.04-4.23-2.47-5.86-4.3-1.63-1.83-2.9-3.97-3.82-6.41-.92-2.45-1.37-5.08-1.37-7.89s.43-5.44,1.3-7.86c.86-2.42,2.06-4.55,3.6-6.38,1.53-1.83,3.36-3.26,5.48-4.3,2.13-1.04,4.45-1.56,6.97-1.56,2.87,0,5.45.69,7.75,2.08,2.3,1.38,4.09,3.19,5.38,5.41v-22.09h9.93v42.7c0,1.04.17,1.78.52,2.22.35.44.94.69,1.78.74v8.45c-1.73.35-3.14.52-4.23.52-1.78,0-3.24-.44-4.37-1.34-1.14-.89-1.78-2.05-1.93-3.48l-.22-2.45c-1.43,2.47-3.37,4.34-5.82,5.6-2.45,1.26-5,1.89-7.67,1.89M99.89,345.02c.94,0,1.9-.16,2.89-.48.99-.32,1.9-.78,2.74-1.37.84-.59,1.59-1.29,2.26-2.08.67-.79,1.17-1.66,1.52-2.59v-9.27c-.4-1.09-.95-2.09-1.67-3-.72-.91-1.53-1.71-2.45-2.37-.92-.67-1.88-1.2-2.89-1.59-1.01-.4-2.02-.59-3-.59-1.48,0-2.85.32-4.11.96-1.26.64-2.33,1.52-3.22,2.63-.89,1.11-1.58,2.39-2.08,3.82-.49,1.43-.74,2.92-.74,4.45,0,1.63.27,3.14.82,4.52.54,1.38,1.28,2.6,2.22,3.63.94,1.04,2.06,1.85,3.37,2.45,1.31.59,2.75.89,4.34.89"/>
  <path class="cls-1" d="M189.37,352.73h-9.93v-21.8c0-3.11-.53-5.39-1.59-6.82-1.06-1.43-2.53-2.15-4.41-2.15-1.98,0-3.83.75-5.56,2.26-1.73,1.51-2.96,3.47-3.71,5.89v22.61h-9.93v-21.8c0-3.11-.53-5.39-1.6-6.82-1.06-1.43-2.53-2.15-4.41-2.15s-3.77.74-5.52,2.22c-1.76,1.48-3,3.44-3.74,5.86v22.69h-9.93v-38.85h8.97v7.19c1.43-2.52,3.4-4.46,5.89-5.82,2.5-1.36,5.35-2.04,8.56-2.04s5.78.79,7.56,2.37c1.78,1.58,2.91,3.54,3.41,5.86,1.58-2.67,3.58-4.71,6.01-6.11,2.42-1.41,5.19-2.11,8.3-2.11,2.37,0,4.32.44,5.86,1.33,1.53.89,2.72,2.05,3.56,3.48.84,1.43,1.42,3.06,1.74,4.89.32,1.83.48,3.68.48,5.56v24.24Z"/>
  <path class="cls-1" d="M198.04,298.61h9.93v9.86h-9.93v-9.86ZM198.04,313.88h9.93v38.85h-9.93v-38.85Z"/>
  <path class="cls-1" d="M253.05,352.73h-9.93v-21.8c0-3.11-.55-5.39-1.63-6.82-1.09-1.43-2.59-2.15-4.52-2.15-.99,0-2,.2-3.04.59-1.04.4-2.01.95-2.93,1.67-.91.72-1.74,1.57-2.48,2.56-.74.99-1.28,2.08-1.63,3.26v22.69h-9.93v-38.85h8.97v7.19c1.43-2.47,3.51-4.4,6.23-5.78,2.72-1.38,5.78-2.08,9.19-2.08,2.42,0,4.4.44,5.93,1.33,1.53.89,2.72,2.05,3.56,3.48.84,1.43,1.42,3.06,1.74,4.89.32,1.83.48,3.68.48,5.56v24.24Z"/>
  <path class="cls-1" d="M261.72,298.61h9.93v9.86h-9.93v-9.86ZM261.72,313.88h9.93v38.85h-9.93v-38.85Z"/>
  <path class="cls-1" d="M295.3,353.47c-3.26,0-6.45-.52-9.56-1.56-3.11-1.04-5.78-2.52-8.01-4.45l3.71-6.23c2.37,1.68,4.68,2.95,6.93,3.82,2.25.87,4.49,1.3,6.71,1.3,1.98,0,3.53-.37,4.67-1.11,1.14-.74,1.7-1.8,1.7-3.19s-.67-2.4-2-3.04-3.51-1.38-6.52-2.22c-2.52-.69-4.67-1.36-6.45-2-1.78-.64-3.21-1.37-4.3-2.19-1.09-.82-1.88-1.75-2.37-2.82-.49-1.06-.74-2.33-.74-3.82,0-1.98.38-3.76,1.15-5.34.77-1.58,1.84-2.93,3.22-4.04,1.38-1.11,3-1.96,4.86-2.56,1.85-.59,3.87-.89,6.04-.89,2.92,0,5.65.42,8.19,1.26,2.55.84,4.88,2.2,7.01,4.08l-4,6.01c-1.98-1.48-3.89-2.57-5.75-3.26-1.85-.69-3.7-1.04-5.52-1.04-1.68,0-3.09.35-4.23,1.04-1.14.69-1.71,1.8-1.71,3.34,0,.69.14,1.26.41,1.7.27.44.71.84,1.3,1.19.59.35,1.37.68,2.33,1,.96.32,2.16.65,3.6,1,2.67.69,4.95,1.38,6.86,2.08,1.9.69,3.46,1.48,4.67,2.37,1.21.89,2.1,1.92,2.67,3.08.57,1.16.85,2.56.85,4.19,0,3.81-1.41,6.81-4.23,9.01-2.82,2.2-6.65,3.3-11.49,3.3"/>
  <path class="cls-1" d="M340.75,350.73c-1.33.59-2.96,1.19-4.89,1.78-1.93.59-3.95.89-6.08.89-1.38,0-2.68-.17-3.89-.52-1.21-.35-2.27-.9-3.19-1.67-.92-.77-1.64-1.75-2.19-2.96-.55-1.21-.82-2.68-.82-4.41v-22.32h-5.12v-7.64h5.12v-12.6h9.93v12.6h8.16v7.64h-8.16v18.98c0,1.38.36,2.36,1.07,2.93.72.57,1.6.85,2.63.85s2.05-.17,3.04-.52c.99-.34,1.78-.64,2.37-.89l2,7.86Z"/>
  <path class="cls-1" d="M369.07,322.48c-3.01.05-5.71.63-8.08,1.74-2.37,1.11-4.08,2.78-5.12,5v23.5h-9.93v-38.85h9.12v8.3c.69-1.33,1.51-2.53,2.45-3.6.94-1.06,1.95-1.99,3.04-2.78,1.09-.79,2.19-1.4,3.3-1.82,1.11-.42,2.19-.63,3.22-.63h1.22c.27,0,.53.02.78.07v9.04Z"/>
  <path class="cls-1" d="M384.71,353.47c-1.88,0-3.63-.31-5.26-.93-1.63-.62-3.04-1.48-4.23-2.59-1.19-1.11-2.11-2.41-2.78-3.89-.67-1.48-1-3.11-1-4.89s.41-3.52,1.22-5.08c.81-1.56,1.95-2.88,3.41-3.97,1.46-1.09,3.2-1.94,5.23-2.56,2.03-.62,4.25-.93,6.67-.93,1.73,0,3.42.15,5.08.44,1.66.3,3.13.72,4.41,1.26v-2.23c0-2.57-.73-4.55-2.19-5.93-1.46-1.38-3.62-2.08-6.49-2.08-2.08,0-4.1.37-6.08,1.11-1.98.74-4,1.83-6.08,3.26l-3.04-6.3c4.99-3.31,10.38-4.97,16.16-4.97s9.92,1.37,13.01,4.11c3.09,2.74,4.63,6.71,4.63,11.9v12.08c0,1.04.18,1.78.56,2.22.37.44.98.69,1.82.74v8.45c-1.68.34-3.14.52-4.37.52-1.88,0-3.32-.42-4.34-1.26-1.01-.84-1.64-1.95-1.89-3.34l-.22-2.15c-1.73,2.27-3.83,4-6.3,5.19-2.47,1.19-5.12,1.78-7.93,1.78M387.53,346.2c1.68,0,3.27-.3,4.78-.89,1.51-.59,2.68-1.38,3.52-2.37,1.09-.84,1.63-1.78,1.63-2.82v-4.45c-1.19-.44-2.47-.8-3.85-1.07-1.38-.27-2.72-.41-4-.41-2.57,0-4.67.58-6.3,1.74-1.63,1.16-2.45,2.63-2.45,4.41,0,1.68.64,3.08,1.93,4.19,1.28,1.11,2.87,1.67,4.74,1.67"/>
  <path class="cls-1" d="M414.21,333.31c0-2.72.47-5.29,1.41-7.71.94-2.42,2.3-4.55,4.08-6.38,1.78-1.83,3.93-3.29,6.45-4.37,2.52-1.09,5.36-1.63,8.52-1.63,4.25,0,7.87.91,10.86,2.74,2.99,1.83,5.23,4.23,6.71,7.19l-9.71,2.96c-.84-1.43-1.95-2.53-3.34-3.3-1.38-.77-2.92-1.15-4.6-1.15-1.43,0-2.77.28-4,.85-1.23.57-2.31,1.36-3.22,2.37-.91,1.01-1.63,2.24-2.15,3.67-.52,1.43-.78,3.01-.78,4.74s.27,3.31.82,4.74c.54,1.43,1.27,2.67,2.19,3.71.91,1.04,1.99,1.84,3.22,2.41,1.23.57,2.54.85,3.93.85,1.78,0,3.42-.44,4.93-1.33,1.51-.89,2.56-1.98,3.15-3.26l9.71,2.96c-1.33,2.96-3.53,5.39-6.6,7.27-3.06,1.88-6.75,2.82-11.05,2.82-3.16,0-6.01-.55-8.52-1.63-2.52-1.09-4.67-2.56-6.45-4.41-1.78-1.85-3.15-4-4.11-6.45-.96-2.45-1.45-5-1.45-7.67"/>
  <path class="cls-1" d="M458.47,298.61h9.93v9.86h-9.93v-9.86ZM458.47,313.88h9.93v38.85h-9.93v-38.85Z"/>
  <path class="cls-1" d="M495.32,353.47c-3.16,0-6-.55-8.53-1.63-2.52-1.09-4.66-2.56-6.41-4.41-1.75-1.85-3.1-3.99-4.04-6.41-.94-2.42-1.41-4.97-1.41-7.64s.47-5.29,1.41-7.71c.94-2.42,2.29-4.56,4.04-6.41,1.75-1.85,3.89-3.32,6.41-4.41,2.52-1.09,5.36-1.63,8.53-1.63s5.99.54,8.49,1.63c2.49,1.09,4.62,2.56,6.38,4.41,1.75,1.85,3.1,3.99,4.04,6.41.94,2.42,1.41,4.99,1.41,7.71s-.47,5.22-1.41,7.64c-.94,2.42-2.27,4.56-4,6.41-1.73,1.85-3.85,3.32-6.38,4.41-2.52,1.09-5.36,1.63-8.52,1.63M485.16,333.38c0,1.73.26,3.3.78,4.71.52,1.41,1.23,2.63,2.15,3.67.91,1.04,1.99,1.84,3.22,2.41,1.24.57,2.57.85,4,.85s2.77-.28,4-.85c1.24-.57,2.31-1.37,3.23-2.41.91-1.04,1.63-2.27,2.15-3.71.52-1.43.78-3.01.78-4.74s-.26-3.24-.78-4.67c-.52-1.43-1.24-2.67-2.15-3.71-.92-1.04-1.99-1.84-3.23-2.41-1.23-.57-2.57-.85-4-.85s-2.77.3-4,.89c-1.23.59-2.31,1.41-3.22,2.45-.92,1.04-1.63,2.27-2.15,3.71-.52,1.43-.78,2.99-.78,4.67M497.84,309.36l-6.38-1.93,4-8.82h9.27l-6.89,10.75Z"/>
  <path class="cls-1" d="M55.93,427.23c-3.86,0-7.35-.75-10.49-2.26-3.14-1.51-5.83-3.51-8.08-6-2.25-2.5-3.99-5.35-5.23-8.56-1.24-3.21-1.85-6.5-1.85-9.86s.65-6.87,1.96-10.08c1.31-3.21,3.11-6.05,5.41-8.53,2.3-2.47,5.03-4.43,8.19-5.89,3.16-1.46,6.6-2.19,10.3-2.19s7.28.78,10.42,2.33c3.14,1.56,5.82,3.6,8.04,6.12,2.22,2.52,3.95,5.39,5.19,8.6,1.24,3.21,1.85,6.48,1.85,9.79,0,3.51-.64,6.86-1.93,10.04-1.29,3.19-3.06,6.01-5.34,8.45-2.27,2.45-4.99,4.4-8.15,5.86-3.16,1.46-6.6,2.19-10.3,2.19M40.65,400.54c0,2.27.35,4.47,1.04,6.6.69,2.13,1.69,4,3,5.63,1.31,1.63,2.91,2.94,4.82,3.93,1.9.99,4.06,1.48,6.49,1.48s4.66-.51,6.56-1.52c1.9-1.01,3.51-2.36,4.82-4.04,1.31-1.68,2.3-3.57,2.97-5.67.67-2.1,1-4.24,1-6.41s-.36-4.47-1.08-6.6c-.72-2.12-1.73-4-3.04-5.63-1.31-1.63-2.92-2.93-4.82-3.89-1.9-.96-4.04-1.44-6.41-1.44s-4.67.51-6.6,1.52c-1.93,1.01-3.53,2.35-4.82,4-1.28,1.66-2.26,3.53-2.93,5.63-.67,2.1-1,4.24-1,6.41"/>
  <path class="cls-1" d="M110.64,427.6c-2.96,0-5.61-.67-7.93-2-2.32-1.33-4.15-3.16-5.49-5.49v6.75h-8.67v-54.12h9.93v22.09c1.38-2.37,3.2-4.21,5.45-5.52,2.25-1.31,4.88-1.96,7.89-1.96,2.52,0,4.82.54,6.9,1.63,2.08,1.09,3.87,2.55,5.38,4.37,1.51,1.83,2.67,3.98,3.48,6.45.82,2.47,1.22,5.07,1.22,7.78s-.46,5.44-1.37,7.86c-.92,2.42-2.19,4.53-3.82,6.34-1.63,1.8-3.56,3.22-5.78,4.26-2.22,1.04-4.62,1.56-7.19,1.56M107.89,419.15c1.58,0,3.04-.31,4.37-.93,1.34-.62,2.47-1.44,3.41-2.48.94-1.04,1.67-2.25,2.19-3.63.52-1.38.78-2.87.78-4.45s-.25-3.09-.74-4.52c-.49-1.43-1.2-2.69-2.11-3.78-.91-1.09-1.99-1.95-3.22-2.59-1.24-.64-2.6-.96-4.08-.96-2.22,0-4.21.73-5.97,2.19-1.76,1.46-3.1,3.25-4.04,5.38v9.27c.35.99.85,1.88,1.52,2.67.67.79,1.42,1.47,2.26,2.04.84.57,1.75,1.01,2.74,1.34.99.32,1.95.48,2.89.48"/>
  <path class="cls-1" d="M153.56,427.6c-3.11,0-5.93-.53-8.45-1.59-2.52-1.06-4.67-2.51-6.45-4.34-1.78-1.83-3.15-3.95-4.11-6.38-.96-2.42-1.45-4.97-1.45-7.64s.47-5.38,1.41-7.82c.94-2.45,2.3-4.6,4.08-6.45,1.78-1.85,3.94-3.32,6.49-4.41,2.55-1.09,5.4-1.63,8.56-1.63s5.99.55,8.49,1.63c2.49,1.09,4.62,2.55,6.38,4.37,1.75,1.83,3.09,3.95,4,6.38.91,2.42,1.37,4.94,1.37,7.56,0,.64-.01,1.26-.04,1.85-.03.59-.09,1.09-.19,1.48h-30.02c.15,1.53.52,2.89,1.11,4.08.59,1.19,1.36,2.2,2.3,3.04.94.84,2,1.48,3.19,1.93,1.19.45,2.42.67,3.71.67,1.98,0,3.84-.48,5.6-1.44,1.75-.96,2.95-2.24,3.6-3.82l8.53,2.37c-1.43,2.97-3.72,5.4-6.86,7.3-3.14,1.9-6.88,2.85-11.23,2.85M163.64,404.18c-.25-2.92-1.32-5.25-3.22-7.01-1.9-1.75-4.21-2.63-6.93-2.63-1.33,0-2.58.24-3.74.7-1.16.47-2.19,1.13-3.08,1.96-.89.84-1.62,1.85-2.19,3.04-.57,1.19-.9,2.5-1,3.93h20.16Z"/>
  <path class="cls-1" d="M203.08,396.62c-3.01.05-5.71.63-8.08,1.74-2.37,1.11-4.08,2.78-5.12,5v23.5h-9.93v-38.85h9.12v8.3c.69-1.33,1.51-2.53,2.45-3.6.94-1.06,1.95-1.99,3.04-2.78,1.09-.79,2.19-1.4,3.3-1.82,1.11-.42,2.19-.63,3.22-.63h1.22c.27,0,.53.02.78.07v9.04Z"/>
  <path class="cls-1" d="M231.92,424.86c-1.33.59-2.96,1.19-4.89,1.78-1.93.59-3.95.89-6.08.89-1.38,0-2.68-.17-3.89-.52-1.21-.35-2.27-.9-3.19-1.67-.92-.77-1.64-1.75-2.19-2.96-.55-1.21-.82-2.68-.82-4.41v-22.32h-5.12v-7.64h5.12v-12.6h9.93v12.6h8.16v7.64h-8.16v18.98c0,1.38.36,2.36,1.07,2.93.72.57,1.6.85,2.63.85s2.05-.17,3.04-.52c.99-.34,1.78-.64,2.37-.89l2,7.86Z"/>
  <path class="cls-1" d="M247.71,427.6c-1.88,0-3.63-.31-5.26-.93-1.63-.62-3.04-1.48-4.23-2.59-1.19-1.11-2.11-2.41-2.78-3.89-.67-1.48-1-3.11-1-4.89s.41-3.52,1.22-5.08c.81-1.56,1.95-2.88,3.41-3.97,1.46-1.09,3.2-1.94,5.23-2.56,2.03-.62,4.25-.93,6.67-.93,1.73,0,3.42.15,5.08.44,1.66.3,3.13.72,4.41,1.26v-2.23c0-2.57-.73-4.55-2.19-5.93-1.46-1.38-3.62-2.08-6.49-2.08-2.08,0-4.1.37-6.08,1.11-1.98.74-4,1.83-6.08,3.26l-3.04-6.3c4.99-3.31,10.38-4.97,16.16-4.97s9.92,1.37,13.01,4.11c3.09,2.74,4.63,6.71,4.63,11.9v12.08c0,1.04.18,1.78.56,2.22.37.44.98.69,1.82.74v8.45c-1.68.34-3.14.52-4.37.52-1.88,0-3.32-.42-4.34-1.26-1.01-.84-1.64-1.95-1.89-3.34l-.22-2.15c-1.73,2.27-3.83,4-6.3,5.19-2.47,1.19-5.12,1.78-7.93,1.78M250.53,420.34c1.68,0,3.27-.3,4.78-.89,1.51-.59,2.68-1.38,3.52-2.37,1.09-.84,1.63-1.78,1.63-2.82v-4.45c-1.19-.44-2.47-.8-3.85-1.07-1.38-.27-2.72-.41-4-.41-2.57,0-4.67.58-6.3,1.74-1.63,1.16-2.45,2.63-2.45,4.41,0,1.68.64,3.08,1.93,4.19,1.28,1.11,2.87,1.67,4.74,1.67"/>
  <path class="cls-1" d="M313.54,427.6c-2.67,0-5.14-.52-7.41-1.56-2.27-1.04-4.23-2.47-5.86-4.3-1.63-1.83-2.9-3.97-3.82-6.41-.92-2.45-1.37-5.08-1.37-7.89s.43-5.44,1.3-7.86c.86-2.42,2.06-4.55,3.6-6.38,1.53-1.83,3.36-3.26,5.48-4.3,2.13-1.04,4.45-1.56,6.97-1.56,2.87,0,5.45.69,7.75,2.08,2.3,1.38,4.09,3.19,5.38,5.41v-22.09h9.93v42.7c0,1.04.17,1.78.52,2.22.35.44.94.69,1.78.74v8.45c-1.73.35-3.14.52-4.23.52-1.78,0-3.24-.44-4.37-1.34-1.14-.89-1.78-2.05-1.93-3.48l-.22-2.45c-1.43,2.47-3.37,4.34-5.82,5.6-2.45,1.26-5,1.89-7.67,1.89M316.13,419.15c.94,0,1.9-.16,2.89-.48.99-.32,1.9-.78,2.74-1.37.84-.59,1.59-1.29,2.26-2.08.67-.79,1.17-1.66,1.52-2.59v-9.27c-.4-1.09-.95-2.09-1.67-3-.72-.91-1.53-1.71-2.45-2.37-.92-.67-1.88-1.2-2.89-1.59-1.01-.4-2.02-.59-3-.59-1.48,0-2.85.32-4.11.96-1.26.64-2.33,1.52-3.22,2.63-.89,1.11-1.58,2.39-2.08,3.82-.49,1.43-.74,2.92-.74,4.45,0,1.63.27,3.14.82,4.52.54,1.38,1.28,2.6,2.22,3.63.94,1.04,2.06,1.85,3.37,2.45,1.31.59,2.75.89,4.34.89"/>
  <path class="cls-1" d="M363.28,427.6c-3.11,0-5.93-.53-8.45-1.59-2.52-1.06-4.67-2.51-6.45-4.34-1.78-1.83-3.15-3.95-4.11-6.38-.96-2.42-1.45-4.97-1.45-7.64s.47-5.38,1.41-7.82c.94-2.45,2.3-4.6,4.08-6.45,1.78-1.85,3.94-3.32,6.49-4.41,2.55-1.09,5.4-1.63,8.56-1.63s5.99.55,8.49,1.63c2.49,1.09,4.62,2.55,6.38,4.37,1.75,1.83,3.09,3.95,4,6.38.91,2.42,1.37,4.94,1.37,7.56,0,.64-.01,1.26-.04,1.85-.03.59-.09,1.09-.19,1.48h-30.02c.15,1.53.52,2.89,1.11,4.08.59,1.19,1.36,2.2,2.3,3.04.94.84,2,1.48,3.19,1.93,1.19.45,2.42.67,3.71.67,1.98,0,3.84-.48,5.6-1.44,1.75-.96,2.95-2.24,3.6-3.82l8.53,2.37c-1.43,2.97-3.72,5.4-6.86,7.3-3.14,1.9-6.88,2.85-11.23,2.85M373.37,404.18c-.25-2.92-1.32-5.25-3.22-7.01-1.9-1.75-4.21-2.63-6.93-2.63-1.33,0-2.58.24-3.74.7-1.16.47-2.19,1.13-3.08,1.96-.89.84-1.62,1.85-2.19,3.04-.57,1.19-.9,2.5-1,3.93h20.16Z"/>
  <path class="cls-1" d="M30.28,474.31c0-3.21.58-6.39,1.74-9.53,1.16-3.14,2.85-5.94,5.08-8.42,2.22-2.47,4.94-4.47,8.16-6.01,3.21-1.53,6.87-2.3,10.97-2.3,4.84,0,9.03,1.06,12.57,3.19,3.53,2.13,6.17,4.89,7.9,8.3l-7.86,5.41c-.69-1.48-1.53-2.73-2.52-3.74-.99-1.01-2.05-1.82-3.19-2.41-1.14-.59-2.32-1.03-3.56-1.3-1.24-.27-2.45-.41-3.63-.41-2.57,0-4.81.52-6.71,1.56-1.9,1.04-3.48,2.39-4.74,4.04-1.26,1.66-2.21,3.53-2.86,5.63-.64,2.1-.96,4.19-.96,6.27,0,2.32.37,4.56,1.11,6.71.74,2.15,1.79,4.04,3.15,5.67,1.36,1.63,2.99,2.94,4.89,3.93,1.9.99,3.99,1.48,6.26,1.48,1.19,0,2.42-.15,3.71-.45,1.28-.3,2.51-.77,3.67-1.41,1.16-.64,2.23-1.47,3.22-2.48.99-1.01,1.78-2.23,2.37-3.67l8.38,4.82c-.84,1.98-2.04,3.72-3.6,5.23-1.56,1.51-3.31,2.78-5.26,3.82-1.95,1.04-4.04,1.83-6.27,2.37-2.22.54-4.4.82-6.52.82-3.76,0-7.19-.79-10.3-2.37-3.11-1.58-5.8-3.64-8.04-6.19-2.25-2.55-4-5.44-5.26-8.67-1.26-3.24-1.89-6.54-1.89-9.9"/>
  <path class="cls-1" d="M93.96,501.74c-1.88,0-3.63-.31-5.26-.93-1.63-.62-3.04-1.48-4.23-2.59-1.19-1.11-2.11-2.41-2.78-3.89-.67-1.48-1-3.11-1-4.89s.41-3.52,1.22-5.08c.81-1.56,1.95-2.88,3.41-3.97,1.46-1.09,3.2-1.94,5.23-2.56,2.03-.62,4.25-.93,6.67-.93,1.73,0,3.42.15,5.08.44,1.66.3,3.13.72,4.41,1.26v-2.23c0-2.57-.73-4.55-2.19-5.93-1.46-1.38-3.62-2.08-6.49-2.08-2.08,0-4.1.37-6.08,1.11-1.98.74-4,1.83-6.08,3.26l-3.04-6.3c4.99-3.31,10.38-4.97,16.16-4.97s9.92,1.37,13.01,4.11c3.09,2.74,4.63,6.71,4.63,11.9v12.08c0,1.04.18,1.78.56,2.22.37.44.98.69,1.82.74v8.45c-1.68.34-3.14.52-4.37.52-1.88,0-3.32-.42-4.34-1.26-1.01-.84-1.64-1.95-1.89-3.34l-.22-2.15c-1.73,2.27-3.83,4-6.3,5.19-2.47,1.19-5.12,1.78-7.93,1.78M96.77,494.47c1.68,0,3.27-.3,4.78-.89,1.51-.59,2.68-1.38,3.52-2.37,1.09-.84,1.63-1.78,1.63-2.82v-4.45c-1.19-.44-2.47-.8-3.85-1.07-1.38-.27-2.72-.41-4-.41-2.57,0-4.67.58-6.3,1.74-1.63,1.16-2.45,2.63-2.45,4.41,0,1.68.64,3.08,1.93,4.19,1.28,1.11,2.87,1.67,4.74,1.67"/>
  <path class="cls-1" d="M148.89,499c-1.33.59-2.96,1.19-4.89,1.78-1.93.59-3.95.89-6.08.89-1.38,0-2.68-.17-3.89-.52-1.21-.35-2.27-.9-3.19-1.67-.92-.77-1.64-1.75-2.19-2.96-.55-1.21-.82-2.68-.82-4.41v-22.32h-5.12v-7.64h5.12v-12.6h9.93v12.6h8.16v7.64h-8.16v18.98c0,1.38.36,2.36,1.07,2.93.72.57,1.6.85,2.63.85s2.05-.17,3.04-.52c.99-.34,1.78-.64,2.37-.89l2,7.86Z"/>
  <path class="cls-1" d="M164.68,501.74c-1.88,0-3.63-.31-5.26-.93-1.63-.62-3.04-1.48-4.23-2.59-1.19-1.11-2.11-2.41-2.78-3.89-.67-1.48-1-3.11-1-4.89s.41-3.52,1.22-5.08c.81-1.56,1.95-2.88,3.41-3.97,1.46-1.09,3.2-1.94,5.23-2.56,2.03-.62,4.25-.93,6.67-.93,1.73,0,3.42.15,5.08.44,1.66.3,3.13.72,4.41,1.26v-2.23c0-2.57-.73-4.55-2.19-5.93-1.46-1.38-3.62-2.08-6.49-2.08-2.08,0-4.1.37-6.08,1.11-1.98.74-4,1.83-6.08,3.26l-3.04-6.3c4.99-3.31,10.38-4.97,16.16-4.97s9.92,1.37,13.01,4.11c3.09,2.74,4.63,6.71,4.63,11.9v12.08c0,1.04.18,1.78.56,2.22.37.44.98.69,1.82.74v8.45c-1.68.34-3.14.52-4.37.52-1.88,0-3.32-.42-4.34-1.26-1.01-.84-1.64-1.95-1.89-3.34l-.22-2.15c-1.73,2.27-3.83,4-6.3,5.19-2.47,1.19-5.12,1.78-7.93,1.78M167.5,494.47c1.68,0,3.27-.3,4.78-.89,1.51-.59,2.68-1.38,3.52-2.37,1.09-.84,1.63-1.78,1.63-2.82v-4.45c-1.19-.44-2.47-.8-3.85-1.07-1.38-.27-2.72-.41-4-.41-2.57,0-4.67.58-6.3,1.74-1.63,1.16-2.45,2.63-2.45,4.41,0,1.68.64,3.08,1.93,4.19,1.28,1.11,2.87,1.67,4.74,1.67"/>
  <path class="cls-1" d="M196.56,446.88h9.93v41.67c0,1.43.35,2.55,1.04,3.34.69.79,1.68,1.19,2.97,1.19.59,0,1.25-.1,1.96-.3.71-.2,1.4-.44,2.04-.74l1.33,7.56c-1.33.64-2.89,1.14-4.67,1.48-1.78.35-3.39.52-4.82.52-3.11,0-5.52-.83-7.23-2.48-1.7-1.66-2.56-4.01-2.56-7.08v-45.15Z"/>
  <path class="cls-1" d="M231.99,501.74c-4,0-7.04-1.28-9.12-3.85-2.08-2.57-3.11-6.38-3.11-11.42v-24.32h9.93v22.17c0,5.98,2.15,8.97,6.45,8.97,1.93,0,3.79-.58,5.6-1.74,1.8-1.16,3.27-2.93,4.41-5.3v-24.09h9.93v27.43c0,1.04.19,1.78.56,2.22.37.44.97.69,1.82.74v8.45c-.99.2-1.82.32-2.48.37-.67.05-1.27.08-1.82.08-1.78,0-3.22-.41-4.34-1.22-1.11-.81-1.77-1.94-1.97-3.37l-.22-3.11c-1.73,2.67-3.95,4.67-6.67,6-2.72,1.34-5.71,2-8.97,2"/>
  <path class="cls-1" d="M302.05,501h-9.93v-21.8c0-3.11-.55-5.39-1.63-6.82-1.09-1.43-2.59-2.15-4.52-2.15-.99,0-2,.2-3.04.59-1.04.4-2.01.95-2.93,1.67-.91.72-1.74,1.57-2.48,2.56-.74.99-1.28,2.08-1.63,3.26v22.69h-9.93v-38.85h8.97v7.19c1.43-2.47,3.51-4.4,6.23-5.78,2.72-1.38,5.78-2.08,9.19-2.08,2.42,0,4.4.44,5.93,1.33,1.53.89,2.72,2.05,3.56,3.48.84,1.43,1.42,3.06,1.74,4.89.32,1.83.48,3.68.48,5.56v24.24Z"/>
  <path class="cls-1" d="M310.65,508.56c.84.25,1.66.43,2.45.56.79.12,1.46.18,2,.18.64,0,1.23-.12,1.78-.37s1.04-.68,1.48-1.3c.44-.62.89-1.47,1.33-2.56.44-1.09.91-2.45,1.41-4.08l-15.35-38.85h10.23l10.53,30.25,9.34-30.25h9.34l-16.31,46.56c-.94,2.72-2.55,4.94-4.82,6.67-2.27,1.73-5.09,2.6-8.45,2.6-.79,0-1.59-.06-2.41-.19-.82-.12-1.67-.33-2.56-.63v-8.6Z"/>
  <path class="cls-1" d="M360.24,501.74c-1.88,0-3.63-.31-5.26-.93-1.63-.62-3.04-1.48-4.23-2.59-1.19-1.11-2.11-2.41-2.78-3.89-.67-1.48-1-3.11-1-4.89s.41-3.52,1.22-5.08c.81-1.56,1.95-2.88,3.41-3.97,1.46-1.09,3.2-1.94,5.23-2.56,2.03-.62,4.25-.93,6.67-.93,1.73,0,3.42.15,5.08.44,1.66.3,3.13.72,4.41,1.26v-2.23c0-2.57-.73-4.55-2.19-5.93-1.46-1.38-3.62-2.08-6.49-2.08-2.08,0-4.1.37-6.08,1.11-1.98.74-4,1.83-6.08,3.26l-3.04-6.3c4.99-3.31,10.38-4.97,16.16-4.97s9.92,1.37,13.01,4.11c3.09,2.74,4.63,6.71,4.63,11.9v12.08c0,1.04.18,1.78.56,2.22.37.44.98.69,1.82.74v8.45c-1.68.34-3.14.52-4.37.52-1.88,0-3.32-.42-4.34-1.26-1.01-.84-1.64-1.95-1.89-3.34l-.22-2.15c-1.73,2.27-3.83,4-6.3,5.19-2.47,1.19-5.12,1.78-7.93,1.78M363.06,494.47c1.68,0,3.27-.3,4.78-.89,1.51-.59,2.68-1.38,3.52-2.37,1.09-.84,1.63-1.78,1.63-2.82v-4.45c-1.19-.44-2.47-.8-3.85-1.07-1.38-.27-2.72-.41-4-.41-2.57,0-4.67.58-6.3,1.74-1.63,1.16-2.45,2.63-2.45,4.41,0,1.68.64,3.08,1.93,4.19,1.28,1.11,2.87,1.67,4.74,1.67"/>
</svg>